<svg width="95" height="95" viewBox="0 0 95 95" fill="none" xmlns="http://www.w3.org/2000/svg">
<path fill-rule="evenodd" clip-rule="evenodd" d="M26.5406 1.30625C27.3749 0.470888 28.5069 0.00103937 29.6875 0L65.3125 0C66.4931 0.00103937 67.6251 0.470888 68.4594 1.30625L93.6937 26.5406C94.5309 27.3719 95 28.5059 95 29.6875V65.3125C94.999 66.4931 94.5291 67.6251 93.6937 68.4594L68.4594 93.6937C67.6251 94.5291 66.4931 94.999 65.3125 95H29.6875C28.5069 94.999 27.3749 94.5291 26.5406 93.6937L1.30625 68.4594C0.470888 67.6251 0.00103937 66.4931 0 65.3125L0 29.6875C0.00103937 28.5069 0.470888 27.3749 1.30625 26.5406L26.5406 1.30625ZM31.5281 8.90625L8.90625 31.5281V63.4719L31.5281 86.0938H63.4719L86.0938 63.4719V31.5281L63.4719 8.90625H31.5281ZM47.5 23.75C48.681 23.75 49.8137 24.2192 50.6488 25.0543C51.484 25.8894 51.9531 27.0221 51.9531 28.2031V48.9844C51.9531 50.1654 51.484 51.2981 50.6488 52.1332C49.8137 52.9683 48.681 53.4375 47.5 53.4375C46.319 53.4375 45.1863 52.9683 44.3512 52.1332C43.516 51.2981 43.0469 50.1654 43.0469 48.9844V28.2031C43.0469 27.0221 43.516 25.8894 44.3512 25.0543C45.1863 24.2192 46.319 23.75 47.5 23.75ZM47.5 71.25C49.0747 71.25 50.5849 70.6244 51.6984 69.5109C52.8119 68.3974 53.4375 66.8872 53.4375 65.3125C53.4375 63.7378 52.8119 62.2276 51.6984 61.1141C50.5849 60.0006 49.0747 59.375 47.5 59.375C45.9253 59.375 44.4151 60.0006 43.3016 61.1141C42.1881 62.2276 41.5625 63.7378 41.5625 65.3125C41.5625 66.8872 42.1881 68.3974 43.3016 69.5109C44.4151 70.6244 45.9253 71.25 47.5 71.25Z" fill="#F1C40F"/>
</svg>
