<svg width="107" height="95" viewBox="0 0 107 95" fill="none" xmlns="http://www.w3.org/2000/svg">
<path d="M29.633 32.5943H41.4854V44.4467C41.4854 45.2326 41.7976 45.9863 42.3533 46.5419C42.909 47.0976 43.6627 47.4098 44.4486 47.4098H56.301C57.0869 47.4098 57.8406 47.0976 58.3963 46.5419C58.9519 45.9863 59.2641 45.2326 59.2641 44.4467V32.5943H71.1166C71.9025 32.5943 72.6561 32.2821 73.2118 31.7264C73.7675 31.1707 74.0797 30.417 74.0797 29.6311V17.7787C74.0797 16.9928 73.7675 16.2391 73.2118 15.6834C72.6561 15.1278 71.9025 14.8156 71.1166 14.8156H59.2641V2.96311C59.2641 2.17725 58.9519 1.42357 58.3963 0.867876C57.8406 0.312184 57.0869 0 56.301 0H44.4486C43.6627 0 42.909 0.312184 42.3533 0.867876C41.7976 1.42357 41.4854 2.17725 41.4854 2.96311V14.8156H29.633C28.8471 14.8156 28.0934 15.1278 27.5378 15.6834C26.9821 16.2391 26.6699 16.9928 26.6699 17.7787V29.6311C26.6699 30.417 26.9821 31.1707 27.5378 31.7264C28.0934 32.2821 28.8471 32.5943 29.633 32.5943ZM105.228 62.2828C104.652 61.4979 103.927 60.8345 103.094 60.3306C102.261 59.8267 101.337 59.4922 100.375 59.3465C99.4121 59.2007 98.4303 59.2465 97.4857 59.4813C96.541 59.716 95.652 60.135 94.8696 60.7142L72.7074 77.0447H50.3711C49.5852 77.0447 48.8315 76.7325 48.2758 76.1768C47.7202 75.6211 47.408 74.8674 47.408 74.0815C47.408 73.2957 47.7202 72.542 48.2758 71.9863C48.8315 71.4306 49.5852 71.1184 50.3711 71.1184H64.8607C67.8238 71.1184 70.5554 69.1054 71.0407 66.1904C71.1839 65.3392 71.1398 64.4671 70.9115 63.6346C70.6832 62.8022 70.2761 62.0296 69.7187 61.3706C69.1612 60.7117 68.4668 60.1821 67.6838 59.819C66.9007 59.4558 66.0479 59.2677 65.1848 59.2678H35.5537C30.5561 59.2668 25.71 60.9831 21.827 64.1292L13.2155 71.1184H2.96311C2.1789 71.1238 1.42831 71.4377 0.873774 71.9922C0.319234 72.5467 0.00533665 73.2973 0 74.0815V91.8602C0.00533665 92.6444 0.319234 93.395 0.873774 93.9496C1.42831 94.5041 2.1789 94.818 2.96311 94.8233H67.2256C71.3359 94.8136 75.3369 93.4991 78.6522 91.0695L103.659 72.6296C105.237 71.4643 106.289 69.7204 106.583 67.7806C106.877 65.8408 106.39 63.8636 105.228 62.2828V62.2828Z" fill="#E74C3C"/>
</svg>
