<svg width="42" height="42" viewBox="0 0 42 42" fill="none" xmlns="http://www.w3.org/2000/svg">
<path d="M21 0.166672C16.8795 0.166672 12.8516 1.38853 9.42559 3.67772C5.99956 5.96692 3.3293 9.22064 1.75248 13.0274C0.175653 16.8342 -0.236917 21.0231 0.566942 25.0644C1.3708 29.1057 3.35498 32.8178 6.26858 35.7314C9.18217 38.645 12.8943 40.6292 16.9356 41.433C20.9769 42.2369 25.1657 41.8243 28.9725 40.2475C32.7793 38.6707 36.0331 36.0004 38.3222 32.5744C40.6114 29.1484 41.8333 25.1204 41.8333 21C41.8333 18.2641 41.2944 15.555 40.2475 13.0274C39.2005 10.4998 37.6659 8.20317 35.7314 6.26861C33.7968 4.33406 31.5002 2.79949 28.9725 1.75251C26.4449 0.705542 23.7358 0.166672 21 0.166672V0.166672ZM29.9583 16.0208L20.4375 28.5208C20.2434 28.773 19.9941 28.9773 19.7089 29.1181C19.4236 29.2589 19.1098 29.3326 18.7916 29.3333C18.4752 29.335 18.1625 29.2646 17.8773 29.1275C17.5922 28.9903 17.342 28.79 17.1458 28.5417L12.0625 22.0625C11.8942 21.8464 11.7702 21.5992 11.6974 21.3351C11.6247 21.0711 11.6047 20.7953 11.6385 20.5235C11.6724 20.2517 11.7595 19.9892 11.8947 19.751C12.03 19.5129 12.2109 19.3037 12.4271 19.1354C12.8636 18.7956 13.4172 18.6431 13.9661 18.7115C14.2379 18.7453 14.5004 18.8324 14.7385 18.9677C14.9767 19.103 15.1859 19.2839 15.3541 19.5L18.75 23.8333L26.625 13.4167C26.7919 13.1978 27.0002 13.0139 27.2382 12.8756C27.4761 12.7373 27.739 12.6471 28.0117 12.6104C28.2845 12.5736 28.5619 12.591 28.8279 12.6614C29.094 12.7318 29.3436 12.8539 29.5625 13.0208C29.7813 13.1877 29.9652 13.3961 30.1035 13.634C30.2419 13.872 30.332 14.1348 30.3688 14.4076C30.4055 14.6804 30.3882 14.9577 30.3178 15.2238C30.2473 15.4899 30.1252 15.7395 29.9583 15.9583V16.0208Z" fill="#2ECC71"/>
</svg>
