<svg width="50" height="50" viewBox="0 0 50 50" fill="none" xmlns="http://www.w3.org/2000/svg">
<path d="M47.6692 7.90037L41.2069 1.44415C40.751 0.986293 40.2092 0.623012 39.6125 0.375179C39.0159 0.127346 38.3761 -0.00015485 37.73 1.41136e-07C36.4133 1.41136e-07 35.1754 0.515769 34.2471 1.44415L27.2933 8.39793C26.8354 8.85379 26.4721 9.39562 26.2243 9.99229C25.9765 10.589 25.849 11.2287 25.8491 11.8748C25.8491 13.1915 26.3649 14.4294 27.2933 15.3578L32.3782 20.4427C31.1879 23.0662 29.5331 25.4528 27.4935 27.4874C25.4591 29.5319 23.0726 31.1928 20.4487 32.3903L15.3639 27.3054C14.908 26.8476 14.3662 26.4843 13.7695 26.2364C13.1728 25.9886 12.5331 25.8611 11.887 25.8613C10.5702 25.8613 9.33239 26.377 8.404 27.3054L1.44416 34.2531C0.985734 34.7098 0.622141 35.2527 0.374296 35.8504C0.126452 36.4481 -0.000751924 37.089 3.34362e-06 37.7361C3.34362e-06 39.0528 0.515772 40.2907 1.44416 41.219L7.8943 47.6692C9.37486 49.1558 11.4197 49.9992 13.5192 49.9992C13.9622 49.9992 14.3869 49.9628 14.8056 49.89C22.9851 48.543 31.0978 44.1923 37.6451 37.6511C44.1862 31.116 48.5308 23.0094 49.8961 14.8056C50.3087 12.2996 49.4774 9.72073 47.6692 7.90037V7.90037Z" fill="white"/>
</svg>
