<svg width="50" height="50" viewBox="0 0 50 50" fill="none" xmlns="http://www.w3.org/2000/svg">
<path d="M32.8125 32.8125H40.625V40.625H32.8125V32.8125Z" fill="white"/>
<path d="M26.5625 26.5625H32.8125V32.8125H26.5625V26.5625Z" fill="white"/>
<path d="M40.625 40.625H46.875V46.875H40.625V40.625Z" fill="white"/>
<path d="M42.1875 26.5625H46.875V31.25H42.1875V26.5625Z" fill="white"/>
<path d="M26.5625 42.1875H31.25V46.875H26.5625V42.1875Z" fill="white"/>
<path d="M32.8125 9.375H40.625V17.1875H32.8125V9.375Z" fill="white"/>
<path d="M46.875 23.4375H26.5625V3.125H46.875V23.4375ZM30.8594 19.1406H42.5781V7.42188H30.8594V19.1406Z" fill="white"/>
<path d="M9.375 9.375H17.1875V17.1875H9.375V9.375Z" fill="white"/>
<path d="M23.4375 23.4375H3.125V3.125H23.4375V23.4375ZM7.42188 19.1406H19.1406V7.42188H7.42188V19.1406Z" fill="white"/>
<path d="M9.375 32.8125H17.1875V40.625H9.375V32.8125Z" fill="white"/>
<path d="M23.4375 46.875H3.125V26.5625H23.4375V46.875ZM7.42188 42.5781H19.1406V30.8594H7.42188V42.5781Z" fill="white"/>
</svg>
