<svg width="50" height="50" viewBox="0 0 50 50" fill="none" xmlns="http://www.w3.org/2000/svg">
<path d="M0 8.33333C0 6.1232 0.877974 4.00358 2.44078 2.44078C4.00358 0.877974 6.1232 0 8.33333 0L15.7333 0C16.8476 0.000865219 17.9297 0.373926 18.8078 1.05996C19.6858 1.74599 20.3096 2.70568 20.58 3.78667L22.5333 11.6C22.8392 12.8218 22.6726 14.114 22.067 15.2183C21.4614 16.3227 20.4613 17.1577 19.2667 17.5567L15.57 18.79C15.0237 18.9728 14.5629 19.3486 14.2739 19.8469C13.9848 20.3451 13.8875 20.9317 14 21.4967C14.7158 25.0753 16.4746 28.362 19.0549 30.9429C21.6352 33.5238 24.9216 35.2834 28.5 36C29.0649 36.1125 29.6515 36.0152 30.1498 35.7261C30.6481 35.4371 31.0239 34.9763 31.2067 34.43L32.2 31.4533C32.4263 30.7735 32.796 30.1502 33.2842 29.6257C33.7724 29.1012 34.3676 28.6877 35.0295 28.4133C35.6915 28.139 36.4046 28.0101 37.1207 28.0354C37.8368 28.0607 38.5391 28.2396 39.18 28.56L47.2333 32.5867C48.0646 33.0016 48.7637 33.64 49.2524 34.4301C49.7411 35.2203 50 36.1309 50 37.06V41.6667C50 43.8768 49.122 45.9964 47.5592 47.5592C45.9964 49.122 43.8768 50 41.6667 50H35C15.67 50 0 34.33 0 15V8.33333Z" fill="white"/>
<path fill-rule="evenodd" clip-rule="evenodd" d="M26.6667 11.6667C26.6667 8.57247 27.8959 5.60501 30.0838 3.41709C32.2718 1.22916 35.2392 0 38.3334 0C41.4276 0 44.3951 1.22916 46.583 3.41709C48.7709 5.60501 50.0001 8.57247 50.0001 11.6667C50.0001 14.7609 48.7709 17.7283 46.583 19.9162C44.3951 22.1042 41.4276 23.3333 38.3334 23.3333C35.2392 23.3333 32.2718 22.1042 30.0838 19.9162C27.8959 17.7283 26.6667 14.7609 26.6667 11.6667V11.6667ZM38.3334 3.33333C36.8275 3.33289 35.3496 3.74053 34.0569 4.51289C32.7641 5.28526 31.7048 6.39349 30.9916 7.71978C30.2784 9.04607 29.9379 10.5408 30.0063 12.0452C30.0747 13.5495 30.5494 15.0072 31.3801 16.2633L42.9301 4.71333C41.5674 3.81035 39.9682 3.33024 38.3334 3.33333V3.33333ZM38.3334 20C36.6334 20 35.0567 19.4933 33.7367 18.62L45.2867 7.07C46.1174 8.32609 46.5922 9.78379 46.6606 11.2881C46.729 12.7925 46.3885 14.2873 45.6752 15.6135C44.962 16.9398 43.9027 18.0481 42.6099 18.8204C41.3172 19.5928 39.8393 20.0004 38.3334 20V20Z" fill="white"/>
</svg>
