<svg width="188" height="191" viewBox="0 0 188 191" fill="none" xmlns="http://www.w3.org/2000/svg">
<path fill-rule="evenodd" clip-rule="evenodd" d="M41.1056 20.5528V0H20.5528V20.5528H0V41.1056H20.5528V61.6553H41.1056V41.1056H61.6584V20.5528H41.1056ZM105.966 84.3481C120.145 84.3481 131.649 72.8354 131.649 58.6594C131.649 55.2869 130.985 51.9474 129.694 48.8316C128.403 45.7158 126.511 42.8848 124.126 40.5002C121.742 38.1156 118.91 36.2241 115.794 34.9338C112.678 33.6435 109.339 32.9796 105.966 32.98C102.594 32.9796 99.2542 33.6435 96.1383 34.9338C93.0224 36.2241 90.1911 38.1156 87.8063 40.5002C85.4214 42.8848 83.5296 45.7158 82.2389 48.8316C80.9482 51.9474 80.2838 55.2869 80.2838 58.6594C80.2838 72.8323 91.7872 84.3481 105.966 84.3481ZM65.7384 167.815V190.607H65.7415H145.108V167.815L167.97 174.177C169.688 174.864 171.522 175.217 173.373 175.217C176.028 175.213 178.632 174.488 180.907 173.118C183.181 171.749 185.041 169.787 186.287 167.442C187.533 165.098 188.118 162.459 187.98 159.808C187.843 157.156 186.987 154.592 185.505 152.389L148.843 102.117C144.867 96.6674 139.304 90.5923 127.588 90.5923H83.2645C71.5425 90.5923 65.9848 96.6674 62.0035 102.117L25.341 152.389C23.8576 154.592 23.0011 157.157 22.8631 159.809C22.7251 162.462 23.3109 165.102 24.5577 167.447C25.8046 169.792 27.6656 171.754 29.9415 173.122C32.2175 174.491 34.8229 175.215 37.4787 175.217C39.3297 175.217 41.1636 174.864 42.8825 174.177L65.7384 167.815ZM135.042 164.884L105.425 174.685L75.8101 164.884L76.4659 164.699C96.9109 158.686 88.9546 131.689 68.5096 137.717L65.7323 138.657V108.168L105.425 121.137L145.12 108.168V138.657L142.327 137.717C121.898 131.689 113.941 158.686 134.374 164.699L135.042 164.884Z" fill="black"/>
</svg>
