<svg xmlns="http://www.w3.org/2000/svg" width="119" height="95" fill="none" viewBox="0 0 119 95"><path fill="#3498DB" d="M56.5248 71.2514H107.1C110.386 71.2514 113.05 68.5925 113.05 65.3138C113.05 42.3593 94.4022 23.7505 71.3998 23.7505V11.8752H104.125C105.769 11.8752 107.1 10.5467 107.1 8.90642V2.96881C107.1 1.32854 105.769 0 104.125 0H26.7746C25.1309 0 23.7996 1.32854 23.7996 2.96881V8.90642C23.7996 10.5467 25.1309 11.8752 26.7746 11.8752H59.4998V23.7505H20.8246L12.7921 13.0628C12.2305 12.315 11.3473 11.8752 10.4121 11.8752H2.97638C1.04076 11.8752 -0.379807 13.6899 0.0906167 15.564L5.94953 35.6257L35.6997 47.5009L51.7647 68.8763C52.3189 69.6139 53.0375 70.2125 53.8637 70.6247C54.69 71.0369 55.601 71.2515 56.5248 71.2514V71.2514ZM77.3498 36.277C88.9803 38.6502 98.1805 47.7681 100.553 59.3762H77.3498V36.277ZM118.139 85.1324L114.021 81.0132C112.858 79.8517 111.001 79.8813 109.811 81.0151C108.493 82.2712 107.238 83.1025 105.229 83.1025H44.6247C42.981 83.1025 41.6497 84.4348 41.6497 86.0769V92.0256C41.6497 93.6677 42.981 95 44.6247 95H105.229C107.996 95 111.793 94.9128 117.957 89.5225C119.262 88.3833 119.364 86.3589 118.139 85.1324V85.1324Z"/></svg>